<svg width="377" height="388" viewBox="0 0 377 388" fill="none" xmlns="http://www.w3.org/2000/svg">
<path d="M88.0495 361.968C88.0493 358.249 87.7113 353.911 89.2897 349.572C91.7699 342.754 95.2505 344.121 95.4903 347.093C92.39 372.505 98.1072 374.984 109.752 374.984C124.013 374.984 135.795 347.093 156.257 322.3C175.668 298.781 183.54 285.732 214.543 242.345C242.019 203.895 246.166 197.099 275.309 194C318.962 194.496 313.753 233.461 305.693 252.882C319.582 246.932 332.355 226.23 337.936 211.975C340.605 205.157 343.341 207.016 341.656 215.693C333.228 259.111 295.176 275.418 285.85 278.914C275.929 282.633 255.467 285.732 263.528 278.914C271.589 272.096 283.403 266.19 285.85 257.221C287.711 250.403 287.135 238.626 269.729 238.626C238.895 238.626 214.088 269.892 187.695 303.158L187.26 303.706C172.998 321.681 140.755 361.968 133.314 370.645C125.873 379.323 115.332 384.281 106.651 383.661C97.9705 383.042 88.0498 373.809 88.0495 361.968Z" fill="white"/>
<path d="M178.579 238.626C165.186 258.46 141.169 281.6 130.834 291.31C115.952 289.45 109.958 295.855 108.512 299.987C105.039 309.904 104.295 318.582 119.673 318.582C138.895 318.582 145.716 305.566 153.156 291.31C156.753 284.419 165.572 273.273 173.095 262.799C175.479 259.08 176.814 260.652 176.719 262.179C175.479 282.013 169.898 288.211 169.898 291.31C169.898 293.217 172.344 294.577 174.239 290.69C186.02 266.518 186.02 249.783 186.02 242.965C186.02 237.352 184.16 234.288 182.3 234.907C180.811 235.403 179.199 237.593 178.579 238.626Z" fill="white"/>
<path d="M100.451 295.029C91.7698 289.451 84.1741 298.128 83.7091 295.029C81.8489 282.633 93.0101 261.559 91.7699 247.923C91.0401 239.899 95.4903 208.876 58.2864 208.876C28.4572 208.876 24.8028 235.734 26.663 250.403C19.7183 245.94 12.4015 233.668 9.30115 227.47C5.89082 220.652 5.58083 227.132 6.20089 229.949C11.1776 252.559 33.9649 272.216 38.4443 273.336C43.4048 274.575 42.7284 265.278 45.8851 256.601C48.3653 249.783 53.3259 242.345 64.487 242.345C76.8884 242.345 79.9887 248.543 80.6088 255.981C81.2288 263.419 74.4081 285.112 72.5479 290.07C70.6877 295.029 68.2074 306.805 72.5479 313.003C76.8884 319.201 79.3686 318.582 91.7699 318.582C104.171 318.582 109.132 300.607 100.451 295.029Z" fill="white"/>
<path d="M99.8307 200.199C109.132 169.208 143.235 126.648 161.837 110.326C171.138 105.368 180.439 107.227 165.558 120.863C155.391 130.179 137.448 154.126 130.214 165.489C122.773 172.927 110.992 196.273 106.031 207.016C126.866 209.496 144.475 193.174 150.676 184.703C168.038 172.307 191.394 138.631 200.901 123.342C219.751 101.029 243.686 106.607 249.267 109.707C255.477 113.156 267.769 122.548 262.908 144.416C256.707 172.307 226.944 192.141 220.744 195.86C214.543 199.579 191.6 213.037 172.998 215.694C164.318 216.933 171.758 211.562 176.099 209.496C188.5 201.438 205.738 184.703 208.342 171.687C213.303 146.895 194.701 159.704 184.78 169.208C175.065 178.712 152.784 199.827 141.375 208.256C129.966 216.685 112.645 216.727 105.411 215.694C107.271 227.47 118.433 220.032 122.153 219.413C125.873 218.793 128.354 218.793 128.974 221.272C129.594 223.751 125.253 227.47 109.132 228.71C96.2343 229.701 95.0767 217.553 96.1101 210.735C79.9886 197.099 92.3898 169.828 96.1102 158.671C99.8306 147.515 118.433 119.004 125.253 114.045C130.71 110.078 130.834 114.045 130.214 116.524C103.427 148.259 96.1102 190.901 99.8307 200.199Z" fill="white"/>
<path d="M72.5479 144.415C72.0519 133.011 94.457 102.268 105.412 88.6325C107.892 74.9968 102.311 58.2619 99.8309 53.9232C97.3507 49.5845 96.1106 47.7251 93.6303 47.7251C91.15 47.7251 88.0497 58.2619 87.4296 63.2204C86.8096 68.1788 78.1287 92.9711 76.2685 99.1692C74.7803 104.128 70.8945 118.383 68.2076 127.061C66.7608 131.399 63.8669 139.457 62.0068 138.837C59.5263 138.011 61.1612 125.201 62.0067 121.482C63.0401 116.937 65.7273 103.88 68.2076 92.9712C71.3079 79.3353 79.3688 40.9073 83.0892 24.1724C85.7074 12.3953 91.3567 15.7017 93.6303 19.214L106.652 40.9073C111.199 48.9648 121.409 65.4517 123.393 69.4184C125.874 74.3769 133.314 89.2523 132.074 94.2108C130.834 99.1692 123.393 101.648 116.573 106.607C107.801 112.984 95.4905 123.342 87.4296 132.639C84.3943 136.14 73.044 155.82 72.5479 144.415Z" fill="white"/>
<path d="M265.389 24.7922L238.106 71.2779C236.245 74.9967 231.905 77.228 241.826 83.674C254.227 91.7315 261.265 97.0269 269.109 105.987C277.79 115.904 286.471 128.92 290.191 138.837C292.051 143.795 292.051 146.894 295.152 146.894C297.632 146.894 297.632 141.316 296.392 135.738C295.152 130.16 290.191 119.623 283.37 108.466C276.55 97.3098 270.479 90.4919 264.899 81.8146C259.318 73.1373 264.668 62.1819 266.629 58.2619C269.109 53.3034 271.796 46.4855 275.31 40.2874C278.41 34.8186 281.355 34.7092 282.13 37.8082C282.544 39.461 283.991 47.1053 285.231 52.6836C286.884 60.1213 290.811 80.575 292.051 94.8306C293.292 109.086 294.842 120.863 297.012 122.102C300.484 124.086 301.352 118.797 301.352 115.904C300.939 108.88 300.484 92.7232 299.492 84.2938C298.252 73.7571 287.711 22.313 284.611 9.91681C282.13 -0.000119686 276.343 5.78476 274.07 9.91681L265.389 24.7922Z" fill="white"/>
<path d="M371.78 205.776C371.78 212.478 366.344 217.912 359.638 217.912C352.932 217.912 347.497 212.478 347.497 205.776C347.497 199.075 352.932 193.641 359.638 193.641C366.344 193.641 371.78 199.075 371.78 205.776Z" stroke="white" stroke-width="3"/>
<path d="M354.71 211.974V198.451H360.048C361.069 198.451 361.941 198.634 362.664 198.999C363.39 199.36 363.943 199.873 364.322 200.538C364.705 201.198 364.896 201.975 364.896 202.869C364.896 203.767 364.703 204.539 364.315 205.186C363.928 205.829 363.366 206.322 362.631 206.666C361.9 207.009 361.014 207.181 359.975 207.181H356.401V204.883H359.513C360.059 204.883 360.512 204.808 360.873 204.658C361.235 204.509 361.503 204.284 361.679 203.985C361.86 203.685 361.95 203.313 361.95 202.869C361.95 202.42 361.86 202.041 361.679 201.733C361.503 201.425 361.232 201.192 360.867 201.033C360.506 200.87 360.05 200.789 359.499 200.789H357.571V211.974H354.71ZM362.016 205.82L365.379 211.974H362.221L358.931 205.82H362.016Z" fill="white"/>
</svg>
